<?xml version="1.0" encoding="utf-8"?>
<!-- Generator: Adobe Illustrator 18.0.0, SVG Export Plug-In . SVG Version: 6.00 Build 0)  -->
<!DOCTYPE svg PUBLIC "-//W3C//DTD SVG 1.1//EN" "http://www.w3.org/Graphics/SVG/1.1/DTD/svg11.dtd">
<svg version="1.1" id="Calque_1" xmlns="http://www.w3.org/2000/svg" xmlns:xlink="http://www.w3.org/1999/xlink" x="0px" y="0px"
	 viewBox="0 0 167 45" style="enable-background:new 0 0 167 45;" xml:space="preserve">
<style type="text/css">
	.st0{fill:#FFFFFF;}
</style>
<g>
	<path class="st0" d="M39.8,44.1V21.5c0-5.7,0-11.4,0.1-17.1h-0.1c-2.3,5.8-4.5,11.4-6.7,17.2l-8.8,22.5h-4.7l-8.7-22.5
		C8.6,15.9,6.4,10.3,4.2,4.5H4c0.1,5.7,0.1,11.4,0.1,17.1v22.6h-4v-44h6.5l8.7,22.5l6.6,17.2H22c2.2-5.7,4.5-11.6,6.6-17.2l8.7-22.5
		h6.5v44H39.8z"/>
	<path class="st0" d="M74.1,24v12.4c0,3.2,0.3,5.9,0.7,7.7h-3.6c-0.3-1.5-0.4-3.3-0.4-4.8h-0.1c-2,3.4-5.7,5.4-11.2,5.4
		c-6.4,0-10.6-3.8-10.6-9c0-5.1,2.9-8.2,11.9-9.6c2.9-0.5,6.9-0.9,9.6-1.1v-1.5c0-5.9-3.3-8.3-8-8.3c-5.3,0-8,2.9-8.2,7h-4
		c0.4-5.9,4.6-10.3,12.2-10.3C69.4,11.9,74.1,15.7,74.1,24z M70.4,28.2c-2.7,0.2-6.5,0.7-9.2,1.1c-6.3,0.9-8.3,2.7-8.3,6.2
		c0,3.6,2.7,6.1,7.4,6.1c2.9,0,5.5-1,7.2-2.8c2.1-2.2,2.9-4,2.9-8.2V28.2z"/>
	<path class="st0" d="M104.9,25v19.1h-3.8V25.2c0-7.4-3-9.8-8-9.8c-4.9,0-9.2,3.5-9.2,10.1v18.6H80V12.7h3.8V17h0.1
		c1.9-3,5.4-4.9,9.8-4.9C100.9,12,104.9,16.3,104.9,25z"/>
	<path class="st0" d="M137.7,28.4c0,10.3-5.4,16.5-14.3,16.5c-8.9,0-14.3-6.2-14.3-16.5c0-10.3,5.4-16.5,14.3-16.5
		C132.3,11.9,137.7,18.1,137.7,28.4z M113,28.4c0,8.2,3.8,13.2,10.3,13.2c6.5,0,10.4-5,10.4-13.2s-3.9-13.2-10.4-13.2
		C116.9,15.2,113,20.2,113,28.4z"/>
	<path class="st0" d="M166.9,25v19.1h-3.8V25.2c0-7.4-3-9.8-8-9.8c-4.9,0-9.2,3.5-9.2,10.1v18.6H142V12.7h3.8V17h0.1
		c1.9-3,5.4-4.9,9.8-4.9C163,12,166.9,16.3,166.9,25z"/>
</g>
</svg>
