<?xml version="1.0" encoding="utf-8"?>
<!-- Generator: Adobe Illustrator 18.0.0, SVG Export Plug-In . SVG Version: 6.00 Build 0)  -->
<!DOCTYPE svg PUBLIC "-//W3C//DTD SVG 1.1//EN" "http://www.w3.org/Graphics/SVG/1.1/DTD/svg11.dtd">
<svg version="1.1" id="Calque_1" xmlns="http://www.w3.org/2000/svg" xmlns:xlink="http://www.w3.org/1999/xlink" x="0px" y="0px"
	 viewBox="0 0 83 44" style="enable-background:new 0 0 83 44;" xml:space="preserve">
<style type="text/css">
	.st0{fill:#FFFFFF;}
</style>
<path class="st0" d="M79,0v22.5c0,5.7,0.4,11.5,0.5,17.5h-0.1c-2.2-6-4.5-11.6-6.7-17.4L63.9,0h-4.7l-8.8,22.6
	C48.2,28.4,46.1,34,43.8,40H44V0h-0.3h-4h-2.5l-8.7,22.7C26.3,28.3,24.1,34,21.9,40h-0.1l-6.6-17.3L6.5,0H0v44h4V21.4
	C4,15.7,4,10,4,5h0.1c2.2,6,4.5,11.1,6.7,16.9L19.5,44h4.7L33,21.9C35.2,16.1,37.4,11,39.6,5H40v39h-0.3h4h2.5l8.7-22.2
	C57.1,16.2,59.4,10,61.5,5h0.1l6.6,16.8L76.9,44H83V0H79z"/>
</svg>
