<?xml version="1.0" encoding="utf-8"?>
<!-- Generator: Adobe Illustrator 18.0.0, SVG Export Plug-In . SVG Version: 6.00 Build 0)  -->
<!DOCTYPE svg PUBLIC "-//W3C//DTD SVG 1.1//EN" "http://www.w3.org/Graphics/SVG/1.1/DTD/svg11.dtd">
<svg version="1.1" id="Calque_1" xmlns="http://www.w3.org/2000/svg" xmlns:xlink="http://www.w3.org/1999/xlink" x="0px" y="0px"
	 viewBox="0 0 312.2 45" style="enable-background:new 0 0 312.2 45;" xml:space="preserve">
<style type="text/css">
	.st0{fill:#FFFFFF;}
</style>
<g>
	<path class="st0" d="M4,0.1v22.6C4,28.3,4,34,4,39.7h0.1c2.3-5.8,4.5-11.4,6.7-17.2l8.8-22.5h4.7L33,22.5
		c2.2,5.8,4.5,11.4,6.7,17.2h0.1c-0.1-5.7-0.1-11.4-0.1-17.1V0.1l4,0v44h-6.5l-8.7-22.5L22,4.4h-0.1c-2.2,5.7-4.5,11.6-6.6,17.2
		L6.5,44.1H0l0-44H4z"/>
	<path class="st0" d="M72.7,34.8h4c-1,5.4-5.4,10.1-13.3,10.1c-9,0-14.3-6.7-14.3-17.1c0-9.3,5.3-16,14.1-16
		c7.1,0,11.9,4.3,13.3,11.2c0.4,1.7,0.5,3.8,0.5,6.1h-24c0.2,8.3,4.6,12.5,10.5,12.5C68.5,41.6,71.8,38.8,72.7,34.8z M53,26h20.2
		c-0.4-7-4.5-10.8-10.1-10.8C57.3,15.2,53.3,19.3,53,26z"/>
	<path class="st0" d="M113.6,40.7V44c-0.8,0.2-1.9,0.3-2.8,0.3c-5.4,0-7.7-2.4-7.7-8.5V15.9h-5v-3.2h5V5.4h3.8v7.3h6.4v3.2h-6.4
		v19.9c0,3.7,1.2,5.2,4.5,5.2C112.2,41,113.1,40.8,113.6,40.7z"/>
	<path class="st0" d="M138.5,34.8h4c-1,5.4-5.4,10.1-13.3,10.1c-9,0-14.3-6.7-14.3-17.1c0-9.3,5.3-16,14.1-16
		c7.1,0,11.9,4.3,13.3,11.2c0.4,1.7,0.5,3.8,0.5,6.1h-24c0.2,8.3,4.6,12.5,10.5,12.5C134.3,41.6,137.6,38.8,138.5,34.8z M118.8,26
		H139c-0.4-7-4.5-10.8-10.1-10.8C123.2,15.2,119.1,19.3,118.8,26z"/>
	<path class="st0" d="M171.9,25v19.1h-3.8V25.2c0-7.4-3-9.8-8-9.8c-4.9,0-9.2,3.5-9.2,10.1v18.6h-3.8V12.7h3.8V17h0.1
		c1.9-3,5.4-4.9,9.8-4.9C168,12,171.9,16.3,171.9,25z"/>
	<path class="st0" d="M181.9,17.3c1.6-3.3,5.4-5.4,9.9-5.4c8.1,0,13.2,6.4,13.2,16.5c0,10-5.1,16.5-13.2,16.5
		c-4.5,0-8.3-2.2-9.9-5.4h-0.1v4.8h-3.8v-44h3.8v17.3H181.9z M181.6,28.3c0,8,3.8,13.2,9.6,13.2c6,0,9.8-5.2,9.8-13.2
		c0-8-3.8-13.2-9.8-13.2C185.4,15.1,181.6,20.3,181.6,28.3z"/>
	<path class="st0" d="M251.5,28.4c0,10.3-5.4,16.5-14.3,16.5c-8.9,0-14.3-6.2-14.3-16.5c0-10.3,5.4-16.5,14.3-16.5
		C246.1,11.9,251.5,18.1,251.5,28.4z M226.8,28.4c0,8.2,3.8,13.2,10.3,13.2c6.5,0,10.4-5,10.4-13.2s-3.9-13.2-10.4-13.2
		C230.7,15.2,226.8,20.2,226.8,28.4z"/>
	<path class="st0" d="M278.7,34.8h4c-1,5.4-5.4,10.1-13.3,10.1c-9,0-14.3-6.7-14.3-17.1c0-9.3,5.3-16,14.1-16
		c7.1,0,11.9,4.3,13.3,11.2c0.4,1.7,0.5,3.8,0.5,6.1h-24c0.2,8.3,4.6,12.5,10.5,12.5C274.5,41.6,277.8,38.8,278.7,34.8z M259,26
		h20.2c-0.4-7-4.5-10.8-10.1-10.8C263.4,15.2,259.4,19.3,259,26z"/>
	<path class="st0" d="M306.9,44.1l-15.6-16.2h-0.1v16.2h-3.8v-44h3.8v25.8h0.1l14-13.2h5.2l-15.2,14.1l17,17.3H306.9z"/>
	<path class="st0" d="M94.7,15.9c-5.8,0-9.6,4.3-9.6,11.6v16.6h-3.8V12.7H85v4.9h0.1c2.1-3.4,5.4-5.2,9.6-5.2
		C94.7,13.4,94.7,14.9,94.7,15.9z"/>
	<path class="st0" d="M223,15.9c-5.8,0-9.6,4.3-9.6,11.6v16.6h-3.8V12.7h3.8v4.9h0.1c2.1-3.4,5.4-5.2,9.6-5.2
		C223,13.4,223,14.9,223,15.9z"/>
</g>
</svg>
